# xmcd
#
# Track frame offsets: 
#        182
#        20652
#        35797
#        66135
#        84727
#        104077
#        138175
#        170202
#        207712
#        239507
#        272872
#        308200
#
# Disc length: 4292 seconds
#
# Revision: 8
# Processed by: cddbd v1.5.2PL0 Copyright (c) Steve Scherf et al.
# Submitted via: ExactAudioCopy v1.0b6
#
DISCID=bf10c20c
DTITLE=Jimmy Witherspoon and Richard "Groove" Holmes - As Blue As Can Be
DYEAR=1900
DGENRE=Blues
TTITLE0=Groove's Groove
TTITLE1=California Blues
TTITLE2=Wonderful World
TTITLE3=Misty
TTITLE4=Walking On A Tightrope
TTITLE5=Slow Blues In G
TTITLE6=Song For My Father
TTITLE7=My Friend
TTITLE8=Lonesome Road Blues
TTITLE9=On Say A Joy
TTITLE10=Danger Zone Is Everywhere
TTITLE11=The Time Has Come
EXTD=
EXTT0=
EXTT1=
EXTT2=
EXTT3=
EXTT4=
EXTT5=
EXTT6=
EXTT7=
EXTT8=
EXTT9=
EXTT10=
EXTT11=
PLAYORDER=
